<svg viewBox="0 0 248 45" xmlns="http://www.w3.org/2000/svg">
  <title>
    Stembolt Logo
  </title>
  <path d="M18.56 44.602c.375 0 .745-.102 1.104-.306 1.263-.72 16.244-9.6 16.244-9.6.6-.356 1.092-1.218 1.092-1.914v-6.308c0-.698-.492-.983-1.093-.628l-23.93 14.01c-.6.355-.6.925.007 1.276l4.348 2.51c.6.35 1.31.778 1.575.96h.654zm6.482-15.943c.602-.35.606-.93.004-1.28L1.116 13.37c-.598-.35-1.09-.07-1.09.627v6.31c0 .697.488 1.555 1.09 1.91l16.242 9.6c.6.354 1.585.36 2.186.01l5.498-3.173zm-10.462 6.1c.607-.35.607-.93.008-1.28l-13.472-7.9c-.6-.35-1.09-.07-1.09.63v6.3c0 .69.487 1.56 1.086 1.91l5.788 3.5c.6.352 1.58.36 2.185.02l5.495-3.18zM.644.41c-.157 0-.62 0-.62 1.108V7.26c0 1.083.41 1.688 1.038 2.067 1.713 1.02 5.023 3.01 5.824 3.49 1.098.655 2.294-.03 2.294-.03l5.452-3.147s1.097-.576-.08-1.27L1.466.703C1.45.7 1.024.42.643.42M37 2.544C37 .886 36.236.886 35.985.886c-.645 0-1.367.47-1.375.477l-22.728 13.31s-1.04.558-.115 1.09c.92.534 5.577 3.22 5.577 3.22s1.256.697 2.536-.06c1.12-.66 13.494-7.972 16.475-9.736.414-.244.645-.595.645-1.158V2.54zm0 10.903c0-.697-.492-.98-1.094-.627L22.44 20.723c-.603.35-.6.925.002 1.272l5.498 3.174c.603.34 1.583.33 2.18-.02l5.794-3.48c.6-.36 1.086-1.22 1.086-1.92v-6.31zm61.24 1.05c.062-.155.054-.305-.02-.41-.076-.108-.21-.167-.382-.167H85.084c-.174 0-.308.06-.383.165-.07.106-.07.252-.02.413l.77 2c.14.36.59.67.98.67h2.31c.53 0 .96.425.96.954v12.21c0 .375.3.678.68.678h2.2c.37 0 .68-.303.68-.678v-12.21c0-.53.43-.954.95-.954h2.34c.394 0 .84-.31.976-.673l.75-2zm-23.26 11.47c0-3.056-2.067-4.21-5.408-5.077-3.024-.775-3.846-1.166-3.846-2.418v-.046c0-1 .934-1.65 2.37-1.65.646.002 1.33.13 2.033.377.13.046.59.197 1.17.197.53 0 1-.13 1.36-.39l.73-.527c.24-.18.38-.43.36-.696-.01-.288-.19-.552-.47-.72-1.53-.89-3.26-1.344-5.16-1.344-3.55 0-5.94 2.054-5.94 5.1v.052c0 3.465 2.34 4.33 5.65 5.174 2.82.72 3.6 1.23 3.6 2.34v.05c0 1.09-1.02 1.77-2.65 1.77-1.135 0-2.2-.26-3.258-.79-.36-.19-.718-.28-1.078-.28-.63 0-1.048.3-1.05.3-.008 0-.548.37-1.19.79-.194.13-.29.27-.296.43-.006.21.15.42.3.53 1.85 1.35 4.152 2.1 6.486 2.1 3.85 0 6.24-2.01 6.24-5.25v-.05zm47.665 2.5c.058-.157.05-.306-.025-.413-.074-.107-.207-.165-.377-.165h-7.796c-.524 0-.953-.43-.953-.95v-2.02c0-.53.43-.95.953-.95h5.28c.39 0 .835-.31.972-.68l.7-1.89c.06-.16.05-.31-.02-.42-.08-.11-.21-.17-.38-.17h-6.67c-.53 0-.95-.43-.95-.96v-1.87c0-.53.42-.95.95-.95h6.77c.39 0 .83-.31.97-.68l.7-1.87c.06-.16.05-.31-.02-.42-.08-.108-.21-.166-.38-.166H109.1c-.093 0-.214.02-.284.123-.07.1-.06.26.013.43l.78 1.76c.19.42.35 1.15.35 1.61v12.49c0 .37.3.673.68.673h10.31c.39 0 .83-.31.97-.673l.7-1.876zM148.42 14.2c-.148-.29-.362-.29-.515 0l-3.236 6.174c-.13.24-.3.37-.5.37s-.38-.13-.5-.37l-3.24-6.174c-.15-.288-.36-.288-.51 0l-8.74 16.665c-.08.145-.09.28-.04.373.06.095.18.15.35.15h2.61c.4 0 .89-.3 1.07-.654l4.49-8.57c.13-.24.3-.367.5-.367.19 0 .37.13.5.368l1.11 2.13c.23.443.23 1.13 0 1.572l-2.62 4.997c-.08.145-.09.28-.04.373.06.095.18.15.35.15h2.61c.392 0 .89-.3 1.07-.654l.5-.95c.124-.24.3-.368.5-.368.194 0 .37.128.494.368l.5.95c.187.355.68.653 1.076.653h2.61c.17 0 .29-.055.35-.15.06-.094.047-.227-.032-.372l-2.613-5.002c-.23-.437-.23-1.125 0-1.567l1.118-2.13c.122-.24.3-.37.492-.37.2 0 .38.13.503.37l4.49 8.568c.18.354.67.653 1.07.653h2.61c.17 0 .29-.055.348-.15.055-.094.043-.227-.035-.373l-8.73-16.665zm25.26 13.68v.004l-.137.003h-3.862c-.31 0-.57-.095-.75-.285-.3-.298-.29-.732-.29-.752v-1.885c.03-.47.31-.965 1.02-.98h3.9c1.07 0 1.94.878 1.94 1.957 0 1.024-.79 1.867-1.8 1.937v-.01zm-5.126-9.8c0-.02-.004-.446.296-.75.184-.184.44-.28.757-.28.075 0 .13-.003.165-.003h.006l3.923.012c.98.07 1.76.88 1.76 1.88 0 1.04-.85 1.89-1.89 1.89l-3.77-.01s-.04-.01-.18-.01c-.31 0-.57-.1-.75-.28-.3-.31-.29-.73-.29-.75v-1.71zm8.72 4.424l-.08-.09.082-.09c.847-.93 1.317-2.135 1.317-3.38 0-2.736-2.198-4.968-4.92-5.028l-.11.004h-9.335c-.2 0-.245.08-.264.103-.12.206.083.677.165.827l.81 1.822s.16.292.16.945V30.08c0 .866.49.935.64.935h.03l7.9.008c2.73-.077 4.94-2.325 4.94-5.08 0-1.273-.48-2.493-1.35-3.438v-.002zm24.536.01c0 3.163-2.295 5.546-5.34 5.546-3.026 0-5.396-2.458-5.396-5.59v-.053c0-3.157 2.298-5.545 5.343-5.545 3.023 0 5.394 2.458 5.394 5.597v.04zm3.726-.097c0-5.012-3.898-8.793-9.067-8.793-5.12 0-9.13 3.883-9.13 8.845v.04c0 5.01 3.9 8.79 9.07 8.79 5.11 0 9.12-3.89 9.12-8.84v-.06zm22.354 5.926c.08-.15.088-.284.03-.38-.06-.096-.186-.152-.356-.152h-7.028c-.524 0-.95-.42-.95-.94V14.6c0-.375-.306-.682-.68-.682h-3.644c-.1 0-.173.035-.22.105-.075.107-.075.285-.004.474l.702 1.87c.165.43.298 1.16.298 1.62v12.34c0 .375.302.68.677.68h9.11c.393 0 .88-.3 1.058-.655l1.008-2.018zm19.7-13.845c.06-.156.05-.302-.02-.412-.074-.107-.21-.166-.38-.166h-12.758c-.17 0-.305.06-.38.166-.074.106-.077.252-.02.413l.76 2c.14.36.588.67.982.67h2.31c.525 0 .954.42.954.95v12.21c0 .37.302.68.677.68h2.19c.373 0 .68-.31.68-.68V18.12c0-.53.427-.953.95-.953h2.33c.39 0 .836-.31.973-.675l.752-2z" fill="#2C2B27" fill-rule="evenodd"/>
</svg>
